<svg width="135px" height="36px" viewBox="0 0 135 36" version="1.1" xmlns="http://www.w3.org/2000/svg" xmlns:xlink="http://www.w3.org/1999/xlink">
    <defs>
        <linearGradient x1="0%" y1="0%" x2="100%" y2="100%" id="linearGradient-1">
            <stop stop-color="#FFFFFF" offset="0%"></stop>
            <stop stop-color="#FFFFFF" stop-opacity="0.7" offset="100%"></stop>
        </linearGradient>
    </defs>
    <g id="logo" stroke="none" stroke-width="1" fill="none" fill-rule="evenodd">
        <g id="logo-black" transform="translate(-445.000000, -1418.000000)">
            <g id="satu" transform="translate(445.000000, 1418.911948)">
                <g id="Group-10" transform="translate(40.714286, 0.985000)" fill="#FFFFFF">
                    <path d="M4.28757143,25.1206429 C5.58757143,26.6535 8.04971429,27.6742143 10.6954286,27.6742143 C13.0625714,27.6742143 14.224,27.0242143 14.224,25.7706429 C14.224,25.3070714 13.9454286,24.9349286 13.4354286,24.6570714 C12.924,24.3777857 11.9954286,24.0527857 10.6025714,23.7277857 C9.21042857,23.4027857 8.14185714,23.0785 7.44471429,22.8449286 C3.86971429,21.5927857 2.059,19.4556429 2.059,16.3456429 C2.059,13.9763571 2.94114286,12.1206429 4.70542857,10.8199286 C6.47114286,9.47421429 8.60542857,8.82421429 11.159,8.82421429 C14.4554286,8.82421429 17.1018571,9.84492857 19.1918571,11.8413571 L15.8954286,16.3920714 C14.6418571,15.2306429 12.9697143,14.6742143 10.9732857,14.6742143 C9.48757143,14.6742143 8.65185714,15.2777857 8.65185714,16.1599286 C8.65185714,16.7635 8.88542857,17.0885 9.62828571,17.4135 C10.5097143,17.7842143 12.459,18.1099286 15.0597143,19.0377857 C18.914,20.3385 20.8175714,22.5670714 20.8175714,25.6777857 C20.8175714,30.4606429 17.3811429,33.5713571 10.5097143,33.5713571 C5.959,33.5713571 2.56971429,32.1785 0.294714286,29.3913571 L4.28757143,25.1206429 Z" id="Fill-1"></path>
                    <path d="M55.405,15.7882143 L52.3407143,15.7882143 L52.3407143,9.52035714 L55.405,9.52035714 L55.405,0.559642857 L62.1378571,0.559642857 L62.1378571,9.52035714 L67.3378571,9.52035714 L67.3378571,15.7882143 L62.1378571,15.7882143 L62.1378571,24.1453571 C62.1378571,26.3739286 63.0192857,27.2567857 65.1092857,27.2567857 C65.48,27.2567857 66.0842857,27.2103571 66.8735714,27.0710714 L66.8735714,33.1996429 C65.945,33.4317857 64.83,33.5246429 63.485,33.5246429 C58.0985714,33.5246429 55.405,30.7389286 55.405,25.1675 L55.405,15.7882143 Z" id="Fill-3"></path>
                    <path d="M70.8375,9.52007143 L77.8482143,9.52007143 L77.8482143,22.8922143 C77.8482143,25.8636429 79.5660714,27.2107857 82.1196429,27.2107857 C84.6732143,27.2107857 86.3910714,25.8636429 86.3910714,22.8922143 L86.3910714,9.52007143 L93.4025,9.52007143 L93.4025,23.4950714 C93.4025,26.7457857 92.3346429,29.2529286 90.1525,30.9707857 C88.0167857,32.6893571 85.3232143,33.5715 82.1196429,33.5715 C78.9167857,33.5715 76.2232143,32.6893571 74.0403571,30.9707857 C71.9053571,29.2529286 70.8375,26.7457857 70.8375,23.4950714 L70.8375,9.52007143 Z" id="Fill-5"></path>
                    <path d="M39.8225714,25.422 C41.0297143,24.2612857 41.6332857,22.8684286 41.6332857,21.242 C41.6332857,19.6184286 41.0297143,18.2255714 39.8225714,17.1105714 C38.6618571,15.9498571 37.2225714,15.3934286 35.5047143,15.3934286 C33.8332857,15.3934286 32.4404286,15.9498571 31.2797143,17.1105714 C30.119,18.2255714 29.5618571,19.6184286 29.5618571,21.242 C29.5618571,22.8684286 30.119,24.2612857 31.2797143,25.422 C32.4404286,26.537 33.8332857,27.0934286 35.5047143,27.0934286 C37.2225714,27.0934286 38.6618571,26.537 39.8225714,25.422 M41.2154286,12.6077143 L41.2154286,9.54342857 L48.134,9.54342857 L48.134,32.9434286 L41.2154286,32.9434286 L41.2154286,29.8791429 C40.5204286,31.9227143 37.7797143,33.3612857 34.2511429,33.3612857 C30.9547143,33.3612857 28.1697143,32.2005714 25.9397143,29.8791429 C23.7575714,27.5112857 22.6432857,24.6334286 22.6432857,21.242 C22.6432857,17.8534286 23.7575714,14.9755714 25.9397143,12.6534286 C28.1697143,10.2862857 30.9547143,9.12557143 34.2511429,9.12557143 C37.7797143,9.12557143 40.5204286,10.5641429 41.2154286,12.6077143" id="Fill-8"></path>
                </g>
                <path d="M0,34.2857143 L34.2857143,34.2857143 L34.2857143,0 L0,0 L0,34.2857143 Z M7.85714286,26.4285714 L26.4285714,26.4285714 L26.4285714,7.85714286 L7.85714286,7.85714286 L7.85714286,26.4285714 Z" id="Fill-11" fill="url(#linearGradient-1)"></path>
            </g>
        </g>
    </g>
</svg>