<svg width="132" height="34" viewBox="0 0 132 34" fill="none" xmlns="http://www.w3.org/2000/svg">
<path d="M21.1233 2.74303L33 11.3217V9.19721L21.1233 0L6.04684 6.58865V5.19024L3.85045 6.15837V7.50299L0 9.08964V11.3217L4.39277 9.52245V8.65936L5.58587 8.14841V9.08964L21.1233 2.74303Z" fill="white"/>
<path d="M1.5456 11.3217V27H6.04684V21.8098L9.87017 27L15.8085 17.7759V27H21.1233V9.52245L24.2416 11.994V27H26.8176H28.3361V15.006L31.9154 17.7759V11.3217L21.1233 3.57669L15.8085 5.86255L9.87017 19.1205L6.04684 9.52245L1.5456 11.3217Z" fill="white"/>
<path d="M48.16 13H51V27H48.26V17.92L44.32 24.42H44L40.06 17.94V27H37.3V13H40.14L44.16 19.62L48.16 13ZM52.5686 13H62.8686V15.64H59.0886V27H56.3286V15.64H52.5686V13ZM65.2436 19.84C65.2436 20.2667 65.8503 20.6333 67.0636 20.94C67.4903 21.0333 67.8769 21.1467 68.2236 21.28C68.5703 21.4 68.9169 21.58 69.2636 21.82C69.6236 22.0467 69.9036 22.3533 70.1036 22.74C70.3036 23.1267 70.4036 23.5733 70.4036 24.08C70.4036 25.1067 70.0169 25.9 69.2436 26.46C68.4703 27.0067 67.5169 27.28 66.3836 27.28C64.3303 27.28 62.9303 26.4867 62.1836 24.9L64.4236 23.64C64.7303 24.5067 65.3836 24.94 66.3836 24.94C67.3036 24.94 67.7636 24.6533 67.7636 24.08C67.7636 23.6533 67.1569 23.2867 65.9436 22.98C65.4903 22.86 65.1036 22.74 64.7836 22.62C64.4636 22.5 64.1169 22.3267 63.7436 22.1C63.3703 21.86 63.0836 21.56 62.8836 21.2C62.6969 20.8267 62.6036 20.3933 62.6036 19.9C62.6036 18.9133 62.9636 18.14 63.6836 17.58C64.4169 17.0067 65.3236 16.72 66.4036 16.72C67.2169 16.72 67.9569 16.9067 68.6236 17.28C69.2903 17.64 69.8169 18.16 70.2036 18.84L68.0036 20.04C67.6836 19.36 67.1503 19.02 66.4036 19.02C66.0703 19.02 65.7903 19.1 65.5636 19.26C65.3503 19.4067 65.2436 19.6 65.2436 19.84ZM77.6228 16.72C78.7295 16.72 79.6295 17.0867 80.3228 17.82C81.0428 18.5667 81.4028 19.58 81.4028 20.86V27H78.8228V21.18C78.8228 20.5267 78.6428 20.02 78.2828 19.66C77.9361 19.3 77.4561 19.12 76.8428 19.12C76.1628 19.12 75.6228 19.3333 75.2228 19.76C74.8361 20.1733 74.6428 20.7867 74.6428 21.6V27H72.0628V13H74.6428V18.12C75.2561 17.1867 76.2495 16.72 77.6228 16.72ZM92.1258 25.76C91.1124 26.7733 89.8591 27.28 88.3658 27.28C86.8724 27.28 85.6191 26.7733 84.6058 25.76C83.5924 24.7467 83.0858 23.4933 83.0858 22C83.0858 20.52 83.5924 19.2733 84.6058 18.26C85.6324 17.2333 86.8858 16.72 88.3658 16.72C89.8458 16.72 91.0991 17.2333 92.1258 18.26C93.1524 19.2867 93.6658 20.5333 93.6658 22C93.6658 23.48 93.1524 24.7333 92.1258 25.76ZM86.4258 23.98C86.9458 24.5 87.5924 24.76 88.3658 24.76C89.1391 24.76 89.7858 24.5 90.3058 23.98C90.8258 23.46 91.0858 22.8 91.0858 22C91.0858 21.2 90.8258 20.54 90.3058 20.02C89.7858 19.5 89.1391 19.24 88.3658 19.24C87.5924 19.24 86.9458 19.5 86.4258 20.02C85.9191 20.5533 85.6658 21.2133 85.6658 22C85.6658 22.7867 85.9191 23.4467 86.4258 23.98ZM101.301 16.72C102.647 16.72 103.794 17.2333 104.741 18.26C105.701 19.2867 106.181 20.5333 106.181 22C106.181 23.4933 105.701 24.7467 104.741 25.76C103.807 26.7733 102.661 27.28 101.301 27.28C99.9008 27.28 98.8208 26.7933 98.0608 25.82V31H95.4808V17H98.0608V18.18C98.8208 17.2067 99.9008 16.72 101.301 16.72ZM98.8408 24.04C99.3608 24.56 100.021 24.82 100.821 24.82C101.621 24.82 102.281 24.56 102.801 24.04C103.334 23.5067 103.601 22.8267 103.601 22C103.601 21.1733 103.334 20.5 102.801 19.98C102.281 19.4467 101.621 19.18 100.821 19.18C100.021 19.18 99.3608 19.4467 98.8408 19.98C98.3208 20.5 98.0608 21.1733 98.0608 22C98.0608 22.8267 98.3208 23.5067 98.8408 24.04ZM110.4 25.56C110.4 26.0267 110.233 26.4267 109.9 26.76C109.566 27.0933 109.166 27.26 108.7 27.26C108.233 27.26 107.833 27.0933 107.5 26.76C107.166 26.4267 107 26.0267 107 25.56C107 25.0933 107.166 24.6933 107.5 24.36C107.833 24.0267 108.233 23.86 108.7 23.86C109.166 23.86 109.566 24.0267 109.9 24.36C110.233 24.6933 110.4 25.0933 110.4 25.56ZM117.631 21.94L121.771 27H118.771L115.131 22.46V27H112.551V13H115.131V21.4L118.571 17H121.651L117.631 21.94ZM130.439 18.72L126.199 24.58H130.639V27H122.739V25.28L126.959 19.42H122.939V17H130.439V18.72Z" fill="white"/>
</svg>
