<svg width="22" height="20" viewBox="0 0 22 20" fill="none" xmlns="http://www.w3.org/2000/svg">
<path d="M21.2051 12.4785V8.24473H18.5833L12.3771 2.51024C12.4468 2.3138 12.4851 2.10263 12.4851 1.88255C12.4851 0.844509 11.6406 0 10.6025 0C9.5645 0 8.71999 0.844509 8.71999 1.88255C8.71999 2.1026 8.75829 2.3138 8.82798 2.51024L2.62182 8.24473H0V12.4785H0.741216L3.31661 20H17.8884L20.4638 12.4785H21.2051V12.4785ZM14.051 14.7301H11.3458V12.499H14.2713L14.051 14.7301ZM9.85927 18.5135H7.52763L7.30082 16.2167H9.85927V18.5135ZM7.15405 14.7301L6.93373 12.499H9.85927V14.7301H7.15405ZM10.9986 1.88255C10.9986 1.99734 10.9492 2.10057 10.8709 2.17295C10.8003 2.23827 10.7061 2.27856 10.6025 2.27856C10.499 2.27856 10.4049 2.23827 10.3342 2.17295C10.2559 2.10055 10.2065 1.99734 10.2065 1.88255C10.2065 1.76776 10.2559 1.66453 10.3342 1.59215C10.4048 1.52683 10.499 1.48654 10.6025 1.48654C10.7061 1.48654 10.8002 1.52683 10.8709 1.59215C10.9492 1.66456 10.9986 1.76776 10.9986 1.88255ZM9.83708 3.60183C10.0711 3.70645 10.33 3.76513 10.6025 3.76513C10.8751 3.76513 11.134 3.70645 11.368 3.60183L16.3928 8.24478H4.81229L9.83708 3.60183ZM1.48654 9.73128H19.7185V10.992H1.48654V9.73128ZM5.43998 12.499L5.66029 14.7302H3.08348L2.31953 12.499H5.43998ZM4.37889 18.5135L3.59247 16.2167H5.80709L6.03387 18.5135H4.37889ZM11.3458 16.2167H13.9042L13.6774 18.5134H11.3458V16.2167ZM16.8262 18.5135H15.1712L15.398 16.2167H17.6126L16.8262 18.5135ZM18.1216 14.7301H15.5448L15.7651 12.499H18.8856L18.1216 14.7301Z" fill="#292929"/>
</svg>
