<svg width="15" height="19" viewBox="0 0 15 19" fill="none" xmlns="http://www.w3.org/2000/svg">
<path d="M9.9161 6.9068C9.79781 6.78856 9.63294 6.72074 9.46373 6.72074C9.2921 6.72074 9.13153 6.78677 9.0114 6.9068L6.77144 9.14671L5.99793 8.3731C5.87713 8.25266 5.71661 8.18632 5.54601 8.18632C5.37526 8.18632 5.21464 8.25276 5.09369 8.37361C4.97284 8.49451 4.90625 8.65523 4.90625 8.82609C4.90625 8.9971 4.97289 9.15782 5.09364 9.27851L6.31947 10.5044C6.4393 10.624 6.59981 10.6898 6.77134 10.6898C6.77139 10.6898 6.77139 10.6898 6.77139 10.6898C6.94301 10.6898 7.10348 10.624 7.22386 10.504L9.9162 7.8117C10.1656 7.56233 10.1656 7.15648 9.9161 6.9068Z" fill="#004BA3"/>
<path d="M14.9695 3.77703C14.9594 3.66048 14.8888 3.5578 14.7836 3.50667L7.64554 0.0335519C7.55367 -0.011184 7.44628 -0.011184 7.3544 0.0335519L0.216376 3.50662C0.11119 3.5578 0.0405546 3.66043 0.0304712 3.77698C0.0213602 3.8817 -0.183329 6.37718 0.605229 9.42511C1.06973 11.2205 1.785 12.8312 2.7311 14.2123C3.91773 15.9445 5.47063 17.3163 7.34683 18.2896C7.39484 18.3145 7.44746 18.3269 7.50002 18.3269C7.55259 18.3269 7.60521 18.3145 7.65322 18.2896C9.52936 17.3163 11.0824 15.9445 12.269 14.2123C13.2151 12.8312 13.9304 11.2205 14.3948 9.42511C15.1833 6.37718 14.9786 3.88175 14.9695 3.77703ZM7.49997 12.8834C5.16654 12.8834 3.26819 10.985 3.26819 8.6516C3.26819 6.31817 5.16654 4.41981 7.49997 4.41981C9.8334 4.41981 11.7318 6.31817 11.7318 8.6516C11.7318 10.985 9.8334 12.8834 7.49997 12.8834Z" fill="#004BA3"/>
</svg>
