<svg width="10" height="14" viewBox="0 0 10 14" fill="none" xmlns="http://www.w3.org/2000/svg">
<path d="M4.70645 2.56717C3.52683 2.56717 2.56714 3.52686 2.56714 4.70648C2.56714 5.8861 3.52683 6.84581 4.70645 6.84581C5.88607 6.84581 6.84576 5.88612 6.84576 4.7065C6.84576 3.52688 5.88607 2.56717 4.70645 2.56717ZM4.70645 5.99009C3.99867 5.99009 3.42286 5.41428 3.42286 4.7065C3.42286 3.99873 3.99867 3.42291 4.70645 3.42291C5.41422 3.42291 5.99004 3.99873 5.99004 4.7065C5.99004 5.41428 5.41422 5.99009 4.70645 5.99009Z" fill="#292929"/>
<path d="M4.70651 0C2.11135 0 0 2.11135 0 4.70651C0 6.52182 0.544117 7.23374 4.35076 12.931C4.51997 13.1843 4.89272 13.1848 5.06227 12.931C8.88905 7.20617 9.41303 6.50391 9.41303 4.70651C9.413 2.11135 7.30168 0 4.70651 0ZM4.70654 11.9233C1.28864 6.81141 0.855769 6.19051 0.855769 4.70651C0.855744 2.5832 2.5832 0.855718 4.70651 0.855718C6.82983 0.855718 8.55729 2.58317 8.55729 4.70649C8.55729 6.13902 8.22795 6.6549 4.70654 11.9233Z" fill="#292929"/>
</svg>
