<svg width="20" height="20" viewBox="0 0 20 20" fill="none" xmlns="http://www.w3.org/2000/svg">
<path d="M2.43234 2.44201C4.0034 0.867251 6.09221 0 8.31394 0C10.5357 0 12.6245 0.867251 14.1955 2.44201C16.877 5.12983 17.3412 9.21123 15.5884 12.3818L19.3409 16.1432C20.2197 17.0241 20.2197 18.4574 19.3409 19.3383C18.9152 19.765 18.3492 20 17.7471 20C17.145 20 16.5791 19.765 16.1534 19.3383L12.4176 15.5937C11.1804 16.2992 9.77596 16.6748 8.31394 16.6748C6.09214 16.6748 4.00333 15.8076 2.43234 14.2329C-0.810781 10.982 -0.810781 5.69276 2.43234 2.44201ZM3.9047 12.757C5.08248 13.9375 6.64833 14.5876 8.31387 14.5876C9.9794 14.5876 11.5453 13.9375 12.723 12.757C15.1542 10.32 15.1542 6.35476 12.723 3.9179C11.5453 2.73735 9.9794 2.08725 8.31387 2.08725C6.64833 2.08725 5.08241 2.73735 3.9047 3.9179C1.47355 6.35483 1.47355 10.32 3.9047 12.757Z" fill="#727272"/>
</svg>
