<svg width="15" height="16" viewBox="0 0 15 16" fill="none" xmlns="http://www.w3.org/2000/svg">
<path d="M14.8004 9.21379C14.59 8.91977 14.2394 8.7222 13.8856 8.69815C13.5968 8.67871 13.3351 8.77623 13.1489 8.97333C13.108 9.01657 13.0639 9.06405 13.0173 9.11491C12.8113 8.9262 12.5414 8.80477 12.2693 8.78629C11.9803 8.76693 11.7187 8.8644 11.5325 9.06147C11.1273 9.49046 10.4097 10.3285 9.8461 10.9957C9.77259 10.9522 9.69396 10.9163 9.61078 10.8895C9.3414 10.7735 5.62804 9.18756 3.98205 9.18756C1.32319 9.18756 0.10168 10.6167 0.0509967 10.6775C-0.0267592 10.7708 -0.014147 10.9093 0.0789196 10.9873C0.172015 11.0653 0.310926 11.0531 0.389239 10.9602C0.392055 10.9569 0.677414 10.6228 1.26028 10.2935C1.7975 9.99014 2.70581 9.62838 3.98202 9.62838C5.56336 9.62838 9.40743 11.2818 9.44608 11.2985C9.51674 11.329 9.58963 11.3523 9.65416 11.3954C9.71508 11.436 9.7696 11.4862 9.8153 11.5434C9.90405 11.6546 9.95964 11.7922 9.97131 11.9341C9.99586 12.2314 9.829 12.5186 9.55965 12.6456C9.3898 12.7256 9.21024 12.7281 9.03179 12.6792L6.62678 12.0168C6.51098 11.9849 6.38762 12.055 6.35573 12.1707C6.32385 12.2865 6.39392 12.4099 6.50969 12.4418L8.91136 13.1032C9.20317 13.1932 9.52205 13.1638 9.79242 13.022C10.067 12.878 10.2692 12.6357 10.3615 12.3397C10.3917 12.2431 10.4087 12.1446 10.4133 12.0461L11.0583 11.9782C11.1154 11.9722 11.1679 11.9442 11.2046 11.9C11.2205 11.881 12.8022 9.98216 13.4694 9.276C13.7467 8.98234 14.2418 9.1905 14.442 9.47025C14.7499 9.90045 14.3673 10.3701 14.2427 10.5038C13.6304 11.1607 12.5075 12.5143 12.3057 12.7582L7.73589 15.0431L5.38471 14.0532C5.27402 14.0066 5.14264 14.06 5.09604 14.1708C5.04943 14.2815 5.10293 14.4128 5.21362 14.4594L7.65829 15.4887C7.71706 15.5135 7.78538 15.5113 7.84239 15.4827L12.5446 13.1316C12.5721 13.1179 12.5964 13.0985 12.616 13.0748C12.6289 13.0591 13.9141 11.5028 14.5652 10.8043C15.0444 10.2902 15.1346 9.68064 14.8004 9.21379ZM10.9232 11.5492L10.3489 11.6097C10.3082 11.4945 10.2495 11.3861 10.1755 11.2889C10.6555 10.7207 11.4356 9.80606 11.8529 9.36428C11.9735 9.23661 12.1296 9.21854 12.2393 9.22619C12.4121 9.23795 12.5893 9.31947 12.7225 9.44274C12.0612 10.1893 11.1609 11.2645 10.9232 11.5492Z" fill="#004BA3"/>
<path d="M4.30338 13.5977L3.36287 13.2017C3.33579 13.1903 3.30669 13.1844 3.2773 13.1844H0.220452C0.0987121 13.1844 0 13.2831 0 13.4049C0 13.5267 0.0987121 13.6253 0.220452 13.6253H3.23277L4.13224 14.0041C4.25057 14.0539 4.38927 13.9891 4.42802 13.8672C4.46205 13.7601 4.40681 13.6413 4.30338 13.5977Z" fill="#004BA3"/>
<path d="M11.7098 7.83797L10.7712 7.97207C11.5344 7.15436 11.9613 6.08311 11.9613 4.941C11.9613 2.48599 9.96401 0.488647 7.50899 0.488647C5.05395 0.488647 3.05664 2.48599 3.05664 4.941C3.05664 5.92607 3.37183 6.85959 3.96812 7.64055C4.54524 8.3964 5.36359 8.95709 6.2725 9.21933C6.39272 9.25397 6.52037 9.17836 6.54841 9.05669C6.57437 8.94421 6.50544 8.82777 6.39469 8.79577C4.68884 8.3036 3.49745 6.71842 3.49745 4.94097C3.49745 2.72899 5.29704 0.92943 7.50899 0.92943C9.72097 0.92943 11.5205 2.72899 11.5205 4.94097C11.5205 6.03445 11.0864 7.05604 10.3156 7.80791V6.6455C10.3156 6.52375 10.2169 6.42508 10.0952 6.42508C9.97342 6.42508 9.87476 6.52375 9.87476 6.6455V8.29125C9.87476 8.42303 9.99577 8.52821 10.1264 8.50947L11.7721 8.27436C11.891 8.25737 11.9762 8.14389 11.9591 8.02498C11.9422 7.9062 11.8285 7.82117 11.7098 7.83797Z" fill="#004BA3"/>
<path d="M5.22869 2.82L6.14869 2.5H6.54869V6H6.08869V3L5.34369 3.22L5.22869 2.82ZM9.31092 4.9H9.73592V5.335H9.31092V6H8.84592V5.335H7.06092V4.9L8.31592 2.5H8.81592L7.56092 4.9H8.84592V3.91H9.31092V4.9Z" fill="#004BA3"/>
</svg>
