<svg width="66" height="70" viewBox="0 0 66 70" fill="none" xmlns="http://www.w3.org/2000/svg">
<path d="M24.4694 27.6318C24.4694 30.6839 21.9795 33.1581 18.9081 33.1581C15.8368 33.1581 13.3469 30.6839 13.3469 27.6318C13.3469 24.5797 15.8368 22.1055 18.9081 22.1055C21.9795 22.1055 24.4694 24.5797 24.4694 27.6318Z" fill="#2AA300"/>
<path d="M25.2108 46.0527C25.2108 49.1048 22.721 51.579 19.6496 51.579C16.5782 51.579 14.0884 49.1048 14.0884 46.0527C14.0884 43.0006 16.5782 40.5264 19.6496 40.5264C22.721 40.5264 25.2108 43.0006 25.2108 46.0527Z" fill="#2AA300"/>
<path d="M15.9421 9.57884L18.5374 12.5262C18.9081 11.9122 20.0204 11.0525 21.5034 12.5262C22.9864 13.9999 23.8514 15.1052 24.0986 15.4736L28.5476 11.4209L25.5816 8.10516L24.8401 4.78937L21.5034 2.94727L15.9421 9.57884Z" fill="#2AA300"/>
<path fill-rule="evenodd" clip-rule="evenodd" d="M21.3847 2.31055L25.2789 4.46041L26.0411 7.86883L29.2506 11.4568L24.0065 16.2337L23.6834 15.7521C23.4604 15.4197 22.6193 14.34 21.151 12.8808C20.492 12.226 20.0062 12.1693 19.7064 12.2325C19.3707 12.3033 19.1024 12.5578 18.9654 12.7846L18.6129 13.3685L15.283 9.58672L21.3847 2.31055ZM21.622 3.58383L16.6014 9.57082L18.5296 11.7606C18.7787 11.5344 19.1041 11.3375 19.5002 11.254C20.2199 11.1023 21.0317 11.3526 21.8558 12.1715C22.9591 13.2678 23.7321 14.1702 24.1712 14.7311L27.8446 11.3849L25.1221 8.34134L24.4013 5.11818L21.622 3.58383Z" fill="#292929"/>
<path d="M65.907 52.8775L55.0011 24.1405V7.32869C55.0011 6.57373 54.3655 5.96151 53.5814 5.96151L48.1019 5.96123L46.1802 0.898139C45.9111 0.188844 45.0961 -0.17551 44.3595 0.0832975L27.6622 5.96041H27.2884C27.3103 5.3378 27.0772 4.70834 26.5848 4.23407L24.451 2.17905C24.8299 1.64667 24.7748 0.913725 24.2837 0.440816C23.7294 -0.093206 22.8306 -0.0930693 22.2759 0.440816L16.5435 5.96137H7.34476C6.56069 5.96137 5.92511 6.57346 5.92511 7.32855V13.6113L0.932347 15.3688C0.578712 15.4934 0.290807 15.7479 0.132233 16.0769C-0.0264842 16.4057 -0.042952 16.7818 0.086236 17.1222L5.92497 32.5072V62.6712C5.92497 63.4263 6.56054 64.0384 7.34462 64.0384H17.8913L19.813 69.1018C20.0234 69.6562 20.5672 70 21.1464 70C21.3083 70 21.4728 69.9731 21.6337 69.9166L38.3341 64.0384H53.5813C54.3652 64.0384 55.0009 63.4263 55.0009 62.6712V58.1719L65.0607 54.6311C65.4144 54.5065 65.7023 54.252 65.8608 53.9231C66.0197 53.5942 66.0362 53.2181 65.907 52.8775ZM5.92511 24.5417L3.24041 17.4676L5.92511 16.5227V24.5417ZM44.0007 3.12091L45.0787 5.96123L35.9325 5.96082L44.0007 3.12091ZM18.0383 8.38962L22.4615 4.13016L24.3056 5.90627C23.9978 6.33024 23.8422 6.84539 23.872 7.36889C23.8727 7.38228 23.8756 7.39541 23.8766 7.40881C23.8774 7.42289 23.8769 7.43697 23.8783 7.45119C23.881 7.48017 23.8872 7.50848 23.8911 7.53719C23.896 7.57478 23.9008 7.61238 23.9077 7.6497C23.9149 7.68881 23.9244 7.72736 23.9338 7.76605C23.9436 7.80652 23.9529 7.84699 23.9649 7.88678C23.9748 7.91972 23.9867 7.95172 23.9982 7.98412C24.0137 8.02814 24.0288 8.07203 24.0469 8.11509C24.0583 8.14203 24.0716 8.16787 24.084 8.19439C24.1056 8.2406 24.127 8.28681 24.1516 8.33166C24.1643 8.35476 24.179 8.37677 24.1926 8.39947C24.2198 8.44513 24.2468 8.49093 24.2772 8.53482C24.2932 8.55793 24.3114 8.57966 24.3283 8.60222C24.3591 8.64337 24.3892 8.6848 24.4227 8.72404C24.4478 8.75343 24.4758 8.78064 24.5025 8.8088C24.5309 8.83888 24.5579 8.87005 24.588 8.89863C24.6462 8.95413 24.7073 9.00677 24.7714 9.05654C24.7721 9.05708 24.7728 9.0579 24.7736 9.05845L27.3469 11.0461L24.1138 14.1598L22.05 11.6817C21.8999 11.5013 21.7227 11.347 21.528 11.2189C21.514 11.2096 21.5011 11.1989 21.4869 11.1899C21.4755 11.1828 21.4633 11.1772 21.4518 11.1703C21.1071 10.9613 20.7102 10.8354 20.2956 10.8135C20.2516 10.8112 20.2078 10.8101 20.1639 10.8101C20.1513 10.8101 20.1388 10.8113 20.1261 10.8115C20.0973 10.8119 20.0686 10.8132 20.04 10.8146C20.0038 10.8164 19.9677 10.8187 19.9318 10.8221C19.9031 10.8249 19.8746 10.828 19.846 10.8317C19.8103 10.8363 19.7746 10.8417 19.7391 10.8478C19.7112 10.8526 19.6832 10.8577 19.6555 10.8635C19.6198 10.8709 19.5844 10.8794 19.5492 10.8884C19.5224 10.8953 19.4955 10.902 19.4688 10.9096C19.4331 10.92 19.3977 10.9316 19.3625 10.9437C19.3371 10.9523 19.3117 10.9605 19.2867 10.9698C19.2504 10.9834 19.2149 10.9986 19.1792 11.0139C19.1561 11.0239 19.1328 11.0331 19.1101 11.0437C19.0713 11.0618 19.0336 11.0817 18.996 11.1017C18.9774 11.1116 18.9583 11.1204 18.94 11.1308C18.8845 11.1621 18.8301 11.1954 18.7772 11.231L16.9325 9.45452L18.0383 8.38962ZM21.9924 66.879L20.9143 64.0384H30.0628L21.9924 66.879ZM8.76441 61.3039V8.69587H13.7045L13.1021 9.27597C12.5478 9.80986 12.5478 10.6756 13.1021 11.2094C13.3794 11.4765 13.7427 11.6099 14.106 11.6099C14.3864 11.6099 14.6663 11.5295 14.9071 11.3705L17.041 13.4258C17.4407 13.8108 17.9556 14.0443 18.511 14.0967C18.5904 14.1042 18.6704 14.1079 18.7512 14.1079C18.8123 14.1079 18.8729 14.1057 18.9331 14.1014C19.2512 14.0788 19.5564 13.9958 19.8361 13.8601C19.9271 13.816 20.0161 13.7673 20.1012 13.7119L22.1929 16.2235C22.4613 16.5457 22.8117 16.7902 23.2041 16.9371C23.4395 17.0253 23.69 17.0782 23.9471 17.0918C23.9913 17.0941 24.0351 17.0952 24.079 17.0952C24.1007 17.0952 24.1222 17.0927 24.1439 17.092C24.1824 17.0911 24.2207 17.0893 24.2589 17.0866C24.3025 17.0834 24.3458 17.0789 24.3891 17.0734C24.4274 17.0686 24.4654 17.0636 24.5033 17.057C24.5462 17.0496 24.5887 17.0405 24.631 17.0309C24.668 17.0226 24.7051 17.0142 24.7416 17.0041C24.7842 16.9924 24.826 16.9787 24.8679 16.9647C24.903 16.9531 24.9382 16.9419 24.9725 16.9286C25.0151 16.9124 25.0566 16.8936 25.0982 16.8751C25.1304 16.8606 25.1631 16.847 25.1946 16.8313C25.2376 16.8098 25.2789 16.7855 25.3206 16.7616C25.3492 16.7452 25.3783 16.73 25.4061 16.7124C25.4515 16.6836 25.4948 16.6519 25.5383 16.6202C25.5603 16.6041 25.5834 16.5896 25.605 16.5728C25.669 16.5227 25.7308 16.4697 25.7895 16.4129L26.7345 15.5029L28.6162 17.3152C28.8935 17.5822 29.2568 17.7156 29.62 17.7156C29.9833 17.7156 30.3468 17.582 30.6239 17.3152C31.1782 16.7813 31.1782 15.9156 30.6239 15.3817L28.7421 13.5696L29.6869 12.6598C30.1723 12.1923 30.4291 11.5456 30.3916 10.8856C30.354 10.2255 30.0254 9.60956 29.4899 9.19599L28.8424 8.69587H52.1616V61.3039H8.76441ZM55.0009 55.2605V32.1062L62.7527 52.5322L55.0009 55.2605Z" fill="#292929"/>
<path d="M49.2372 24.7444C49.2188 24.6569 49.1919 24.5708 49.1565 24.4874C49.121 24.4054 49.0768 24.3261 49.0258 24.2522C48.9733 24.177 48.9151 24.1073 48.8484 24.0444C48.7831 23.9815 48.7105 23.9241 48.6325 23.8749C48.5558 23.8257 48.4735 23.7833 48.3883 23.7491C48.3017 23.7149 48.2137 23.6876 48.1228 23.6712C47.9397 23.6356 47.7509 23.6356 47.5677 23.6712C47.4769 23.6876 47.3874 23.7149 47.3023 23.7491C47.2171 23.7833 47.1335 23.8257 47.0568 23.8749C46.9787 23.9241 46.9062 23.9815 46.8409 24.0444C46.7756 24.1073 46.7159 24.177 46.665 24.2522C46.6139 24.3261 46.5697 24.4054 46.5342 24.4874C46.4987 24.5708 46.4719 24.6569 46.4534 24.7444C46.435 24.8319 46.425 24.9222 46.425 25.011C46.425 25.3706 46.577 25.7233 46.841 25.9776C46.9062 26.0405 46.9787 26.0978 47.0567 26.1472C47.1333 26.1964 47.2171 26.2388 47.3021 26.2729C47.3874 26.3071 47.4767 26.3331 47.5676 26.3509C47.6586 26.3686 47.7521 26.3782 47.8444 26.3782C47.9381 26.3782 48.0304 26.3686 48.1227 26.3509C48.2135 26.3331 48.3015 26.3071 48.3881 26.2729C48.4733 26.2388 48.5557 26.1964 48.6323 26.1472C48.7104 26.0979 48.7829 26.0405 48.8482 25.9776C49.1137 25.7233 49.2642 25.3706 49.2642 25.011C49.2642 24.9222 49.2557 24.8319 49.2372 24.7444Z" fill="#2AA300"/>
<path d="M42.6934 23.644H31.2002C30.4161 23.644 29.7805 24.2561 29.7805 25.0112C29.7805 25.7663 30.4161 26.3784 31.2002 26.3784H42.6934C43.4773 26.3784 44.113 25.7663 44.113 25.0112C44.113 24.2561 43.4773 23.644 42.6934 23.644Z" fill="#292929"/>
<path d="M47.8451 29.2622H31.2002C30.4161 29.2622 29.7805 29.8743 29.7805 30.6294C29.7805 31.3845 30.4161 31.9966 31.2002 31.9966H47.8451C48.6291 31.9966 49.2648 31.3845 49.2648 30.6294C49.2648 29.8743 48.6292 29.2622 47.8451 29.2622Z" fill="#292929"/>
<path d="M19.3211 20.4434C15.0974 20.4434 11.6611 23.7526 11.6611 27.8203C11.6611 31.8881 15.0974 35.1972 19.3211 35.1972C23.5449 35.1972 26.981 31.8879 26.981 27.8203C26.9811 23.7526 23.5449 20.4434 19.3211 20.4434ZM19.3211 32.4628C16.663 32.4628 14.5003 30.3802 14.5003 27.8201C14.5003 25.2601 16.6628 23.1775 19.3211 23.1775C21.9794 23.1775 24.1418 25.2601 24.1418 27.8201C24.1418 30.3802 21.9793 32.4628 19.3211 32.4628Z" fill="#292929"/>
<path d="M22.4596 25.6689C21.9052 25.135 21.0063 25.1352 20.4519 25.669L18.6596 27.3951L17.7239 27.0268C16.9982 26.7413 16.1694 27.076 15.8726 27.7749C15.5758 28.4738 15.9237 29.2721 16.6494 29.5579L18.4587 30.2702C18.6326 30.3385 18.8149 30.3719 18.9956 30.3719C19.3652 30.3719 19.7283 30.2328 19.9998 29.9713L22.4596 27.6024C23.014 27.0685 23.014 26.2028 22.4596 25.6689Z" fill="#292929"/>
<path d="M49.2372 42.9651C49.2188 42.879 49.1919 42.7929 49.1565 42.7095C49.121 42.6274 49.0768 42.5481 49.0258 42.4743C48.9733 42.3991 48.9151 42.3294 48.8484 42.2665C48.7831 42.2036 48.7105 42.1462 48.6325 42.0956C48.5558 42.0464 48.4735 42.004 48.3883 41.9698C48.3017 41.9356 48.2137 41.9097 48.1228 41.8919C47.9397 41.8563 47.7509 41.8563 47.5677 41.8919C47.4769 41.9097 47.3874 41.9356 47.3023 41.9698C47.2171 42.004 47.1335 42.0464 47.0568 42.0956C46.9787 42.1462 46.9062 42.2036 46.8409 42.2665C46.7756 42.3294 46.7159 42.3991 46.665 42.4743C46.6139 42.5481 46.5697 42.6274 46.5342 42.7095C46.4987 42.7929 46.4719 42.879 46.4534 42.9651C46.435 43.054 46.425 43.1442 46.425 43.2331C46.425 43.322 46.435 43.4122 46.4534 43.4997C46.4719 43.5872 46.4987 43.6733 46.5342 43.7554C46.5697 43.8388 46.6137 43.9181 46.665 43.9919C46.7159 44.0671 46.7756 44.1368 46.8409 44.1997C46.9062 44.2626 46.9787 44.32 47.0568 44.3692C47.1335 44.4185 47.2172 44.4608 47.3023 44.495C47.3876 44.5292 47.4769 44.5552 47.5677 44.5729C47.6587 44.5907 47.7523 44.6003 47.8446 44.6003C47.9383 44.6003 48.0305 44.5907 48.1228 44.5729C48.2137 44.5552 48.3017 44.5292 48.3883 44.495C48.4735 44.4608 48.5558 44.4185 48.6325 44.3692C48.7105 44.32 48.7831 44.2626 48.8484 44.1997C48.9151 44.1368 48.9733 44.0671 49.0258 43.9919C49.0768 43.9181 49.121 43.8388 49.1565 43.7554C49.1919 43.6733 49.2188 43.5872 49.2372 43.4997C49.2558 43.4122 49.2642 43.322 49.2642 43.2331C49.2642 43.1442 49.2557 43.054 49.2372 42.9651Z" fill="#2AA300"/>
<path d="M42.6934 41.8657H31.2002C30.4161 41.8657 29.7805 42.4778 29.7805 43.2329C29.7805 43.988 30.4161 44.6001 31.2002 44.6001H42.6934C43.4773 44.6001 44.113 43.988 44.113 43.2329C44.113 42.4778 43.4773 41.8657 42.6934 41.8657Z" fill="#292929"/>
<path d="M47.8451 47.4834H31.2002C30.4161 47.4834 29.7805 48.0955 29.7805 48.8506C29.7805 49.6057 30.4161 50.2178 31.2002 50.2178H47.8451C48.6291 50.2178 49.2648 49.6057 49.2648 48.8506C49.2648 48.0955 48.6292 47.4834 47.8451 47.4834Z" fill="#292929"/>
<path d="M19.3211 38.665C15.0974 38.665 11.6611 41.9743 11.6611 46.0421C11.6611 50.1099 15.0974 53.419 19.3211 53.419C23.5449 53.419 26.981 50.1097 26.981 46.0421C26.9811 41.9742 23.5449 38.665 19.3211 38.665ZM19.3211 50.6846C16.663 50.6846 14.5003 48.602 14.5003 46.042C14.5003 43.4819 16.6628 41.3993 19.3211 41.3993C21.9794 41.3993 24.1418 43.4819 24.1418 46.042C24.1418 48.602 21.9793 50.6846 19.3211 50.6846Z" fill="#292929"/>
<path d="M22.4596 43.8906C21.9052 43.3567 21.0063 43.3567 20.4519 43.8908L18.6596 45.6168L17.7239 45.2485C16.9982 44.963 16.1694 45.2977 15.8726 45.9966C15.5758 46.6955 15.9237 47.4938 16.6494 47.7796L18.4587 48.4919C18.6326 48.5603 18.8149 48.5936 18.9956 48.5936C19.3652 48.5936 19.7283 48.4546 19.9998 48.193L22.4596 45.8241C23.014 45.2902 23.014 44.4245 22.4596 43.8906Z" fill="#292929"/>
</svg>
