<svg width="91" height="70" viewBox="0 0 91 70" fill="none" xmlns="http://www.w3.org/2000/svg">
<path d="M7.78564 31.3159C21.009 31.5615 48.9387 37.5791 53.3877 58.2107L34.1088 58.5791C32.3786 55.7545 28.1027 49.3686 24.8401 49.3686C21.5775 49.3686 16.3129 52.3159 13.7176 58.5791H8.52714L7.78564 31.3159Z" fill="#2AA300"/>
<path d="M70.5291 18.6641H61.1648C60.3676 18.6641 59.7214 19.3059 59.7214 20.0978V36.0653C59.7214 36.8571 60.3674 37.4991 61.1648 37.4991H79.5697C80.3669 37.4991 81.0131 36.8572 81.0131 36.0653V29.0758C81.0131 23.3348 76.31 18.6641 70.5291 18.6641ZM62.6079 34.6316V21.5315H70.5289C74.7183 21.5315 78.1262 24.916 78.1262 29.0758V34.6316H62.6079Z" fill="#292929"/>
<path d="M79.5698 42.6719C78.7726 42.6719 78.1265 43.3137 78.1265 44.1056V48.4088C78.1265 49.2005 78.7724 49.8425 79.5698 49.8425C80.3672 49.8425 81.0131 49.2007 81.0131 48.4088V44.1056C81.0131 43.3139 80.367 42.6719 79.5698 42.6719Z" fill="#2AA300"/>
<path d="M89.0194 54.0185H87.8534V29.0758C87.8534 19.5883 80.0818 11.8694 70.5291 11.8694H55.7685V8.5465C55.7685 7.7548 55.1225 7.11279 54.3251 7.11279H33.3092C32.512 7.11279 31.8658 7.75462 31.8658 8.5465C31.8658 9.33839 32.5118 9.98022 33.3092 9.98022H52.8822L52.8815 41.7844H47.7339C46.9367 41.7844 46.2906 42.4263 46.2906 43.2182C46.2906 44.01 46.9365 44.6519 47.7339 44.6519H52.8815V58.0728H34.2336C33.5272 52.9633 29.106 49.0137 23.7712 49.0137C18.4362 49.0137 14.0152 52.9631 13.3088 58.0728H9.25438V56.8857H10.697C11.4942 56.8857 12.1404 56.2439 12.1404 55.452C12.1404 54.6601 11.4944 54.0183 10.697 54.0183H9.25438V44.6517H41.9606C42.7578 44.6517 43.4039 44.0099 43.4039 43.218C43.4039 42.4261 42.7579 41.7843 41.9606 41.7843H9.25438V31.6588C9.25438 30.8671 8.60842 30.2251 7.81104 30.2251C7.01366 30.2251 6.3677 30.8669 6.3677 31.6588V43.2067C6.3677 43.2106 6.36717 43.2139 6.36717 43.2178C6.36717 43.2217 6.3677 43.225 6.3677 43.2289V54.0179H4.23899C3.44179 54.0179 2.79565 54.6598 2.79565 55.4517C2.79565 56.2435 3.44161 56.8854 4.23899 56.8854H6.3677V59.506C6.3677 60.2977 7.01366 60.9397 7.81104 60.9397H13.3086C14.0146 66.0496 18.436 69.9997 23.771 69.9997C29.1062 69.9997 33.5274 66.0498 34.2334 60.9397L59.1951 60.9401C59.9013 66.0498 64.3229 69.9997 69.6579 69.9997C74.9929 69.9997 79.4141 66.05 80.1203 60.9401H86.4099C87.2071 60.9401 87.8533 60.2983 87.8533 59.5064V56.8852H89.0192C89.8164 56.8852 90.4626 56.2434 90.4626 55.4515C90.4626 54.6596 89.8166 54.0185 89.0194 54.0185ZM23.7712 67.1328C19.5382 67.1328 16.094 63.7119 16.094 59.5069C16.094 55.3019 19.538 51.881 23.7712 51.881C28.0044 51.881 31.4483 55.3019 31.4483 59.5069C31.4483 63.7119 28.0042 67.1328 23.7712 67.1328ZM69.6582 67.1328C65.4257 67.1328 61.9825 63.7133 61.9811 59.5094C61.9811 59.5087 61.9813 59.5076 61.9813 59.5069C61.9813 59.5062 61.9811 59.5052 61.9811 59.5045C61.9825 55.3005 65.4259 51.881 69.6582 51.881C73.8913 51.881 77.3354 55.3019 77.3354 59.5069C77.3354 63.7119 73.8913 67.1328 69.6582 67.1328ZM80.1205 58.0732C79.4143 52.9635 74.9929 49.0135 69.6581 49.0135C64.3232 49.0135 59.9017 52.9633 59.1953 58.0732H55.7685V14.7368H70.5291C78.49 14.7368 84.9668 21.1693 84.9668 29.0758V54.0185H82.5614C81.7642 54.0185 81.118 54.6603 81.118 55.4522C81.118 56.2441 81.764 56.8859 82.5614 56.8859H84.9669V58.0734L80.1205 58.0732Z" fill="#292929"/>
<path d="M15.3654 0C12.8079 0 10.2751 0.637264 8.04059 1.84299C7.34003 2.22086 7.08083 3.09137 7.46124 3.78708C7.84199 4.48261 8.71764 4.7406 9.41855 4.36239C11.2313 3.38429 13.2878 2.86725 15.3654 2.86725C22.2462 2.86725 27.8443 8.42799 27.8443 15.2629C27.8443 22.0978 22.2462 27.6586 15.3654 27.6586C8.48459 27.6586 2.8865 22.0982 2.8865 15.2634C2.8865 12.7793 3.6231 10.3833 5.01697 8.33392C5.4631 7.67788 5.28942 6.78666 4.6288 6.3435C3.96817 5.9 3.07096 6.07287 2.62501 6.72892C0.907808 9.25358 0 12.2049 0 15.2631C0 23.679 6.89284 30.5258 15.3654 30.5258C23.8378 30.5258 30.7308 23.6788 30.7308 15.2629C30.7308 6.84703 23.8382 0 15.3654 0Z" fill="#292929"/>
<path d="M18.9303 13.8293H16.8088V7.28137C16.8088 6.48966 16.1627 5.84766 15.3655 5.84766C14.5683 5.84766 13.9221 6.48948 13.9221 7.28137V15.2631C13.9221 16.0548 14.5681 16.6968 15.3655 16.6968H18.9303C19.7275 16.6968 20.3736 16.0549 20.3736 15.2631C20.3736 14.4712 19.7275 13.8293 18.9303 13.8293Z" fill="#292929"/>
<path d="M23.7713 54.4561C20.9675 54.4561 18.6863 56.722 18.6863 59.5071C18.6863 62.2922 20.9675 64.5582 23.7713 64.5582C26.5751 64.5582 28.8563 62.2922 28.8563 59.5071C28.8563 56.722 26.5753 54.4561 23.7713 54.4561ZM23.7713 61.6908C22.559 61.6908 21.5728 60.7111 21.5728 59.507C21.5728 58.3028 22.559 57.3231 23.7713 57.3231C24.9835 57.3231 25.9698 58.3028 25.9698 59.507C25.9696 60.7111 24.9833 61.6908 23.7713 61.6908Z" fill="#292929"/>
<path d="M69.6583 54.4561C66.8545 54.4561 64.5731 56.722 64.5731 59.5071C64.5731 62.2922 66.8543 64.5582 69.6583 64.5582C72.4623 64.5582 74.7433 62.2922 74.7433 59.5071C74.7433 56.722 72.4621 54.4561 69.6583 54.4561ZM69.6583 61.6908C68.4459 61.6908 67.4596 60.7111 67.4596 59.507C67.4596 58.3028 68.4459 57.3231 69.6583 57.3231C70.8705 57.3231 71.8568 58.3028 71.8568 59.507C71.8566 60.7111 70.8702 61.6908 69.6583 61.6908Z" fill="#292929"/>
</svg>
