<svg width="64" height="70" viewBox="0 0 64 70" fill="none" xmlns="http://www.w3.org/2000/svg">
<path d="M59.3572 1.36719H28.0217V15.724H59.3572V1.36719Z" fill="#2EB100"/>
<path d="M62 40.3286C62 40.3286 51.6765 49.0893 31.8235 40.3286C11.9706 31.5679 31.8235 69 31.8235 69H62V40.3286Z" fill="#2EB100"/>
<path d="M59.3125 1.41459L17.3966 1.37891L23.3364 7.24797L14.7578 15.7245H61.9875L53.4089 7.24797L59.3125 1.41459Z" fill="#2AA300"/>
<path d="M50.2266 24.0625C50.2266 21.4993 48.1162 19.4141 45.5221 19.4141C42.9281 19.4141 40.8177 21.4993 40.8177 24.0625C40.8177 25.8748 41.8735 27.4471 43.4086 28.2134C41.6813 32.9619 37.0786 36.3672 31.6857 36.3672C26.2928 36.3672 21.69 32.9619 19.9627 28.2134C21.4979 27.4471 22.5536 25.8748 22.5536 24.0625C22.5536 21.4993 20.4432 19.4141 17.8492 19.4141C15.2551 19.4141 13.1448 21.4993 13.1448 24.0625C13.1448 26.4064 14.9099 28.3496 17.1955 28.6651C19.1678 34.7133 24.9174 39.1016 31.6857 39.1016C38.4539 39.1016 44.2035 34.7132 46.1758 28.6651C48.4614 28.3496 50.2266 26.4064 50.2266 24.0625ZM15.9121 24.0625C15.9121 23.007 16.781 22.1484 17.8492 22.1484C18.9174 22.1484 19.7863 23.007 19.7863 24.0625C19.7863 24.548 19.6009 24.9905 19.2984 25.3282C19.2551 24.9121 19.2328 24.4897 19.2328 24.0625C19.2328 23.3074 18.6132 22.6953 17.8492 22.6953C17.0851 22.6953 16.4655 23.3074 16.4655 24.0625C16.4655 24.5345 16.4888 25.0011 16.5319 25.462C16.1517 25.1122 15.9121 24.6151 15.9121 24.0625ZM43.585 24.0625C43.585 23.007 44.454 22.1484 45.5221 22.1484C46.5903 22.1484 47.4593 23.007 47.4593 24.0625C47.4593 24.6151 47.2196 25.1122 46.8394 25.462C46.8827 25.0009 46.9058 24.5345 46.9058 24.0625C46.9058 23.3074 46.2862 22.6953 45.5221 22.6953C44.7581 22.6953 44.1385 23.3074 44.1385 24.0625C44.1385 24.4897 44.1162 24.9121 44.0729 25.3282C43.7704 24.9905 43.585 24.548 43.585 24.0625Z" fill="#292929"/>
<path d="M63.0376 14.8355C63.0195 14.8131 62.9964 14.7876 62.966 14.7576L60.7405 12.5586V1.36719C60.7405 0.61209 60.1209 0 59.3569 0H4.01092C3.24687 0 2.62727 0.61209 2.62727 1.36719V12.562L0.405271 14.7576C0.15483 15.005 0 15.3467 0 15.7243V68.6328C0 69.3878 0.619598 70 1.38365 70H61.9874C62.7515 70 63.3711 69.3878 63.3711 68.6328V15.7243C63.3712 15.3847 63.2452 15.0746 63.0376 14.8355ZM4.72433 14.3571L10.3989 8.75H25.1699C25.934 8.75 26.5536 8.13791 26.5536 7.38281C26.5536 6.62772 25.934 6.01562 25.1699 6.01562H10.6722L7.35146 2.73438H56.0199L52.4306 6.281C52.1712 6.53734 52.0253 6.88516 52.0253 7.24773C52.0253 7.61031 52.1712 7.95813 52.4306 8.21447L58.6472 14.3571H4.72433ZM55.3659 7.24773L57.9733 4.67141V9.8242L55.3659 7.24773ZM5.39457 4.66785L8.00551 7.24773L5.39457 9.82762V4.66785ZM60.6039 67.2656H2.76744V64.5312H17.0529C17.817 64.5312 18.4366 63.919 18.4366 63.1641C18.4366 62.4091 17.817 61.7969 17.0529 61.7969H2.76744V17.0915H60.6039V67.2656Z" fill="#292929"/>
<path d="M16.2708 49.7681C15.1842 49.7681 14.3005 49.0321 14.3005 48.1274C14.3005 47.2228 15.1844 46.4868 16.2708 46.4868C17.3573 46.4868 18.2413 47.2228 18.2413 48.1274C18.2413 48.8824 18.8609 49.4946 19.6249 49.4946C20.389 49.4946 21.0086 48.8824 21.0086 48.1274C21.0086 45.715 18.8833 43.7524 16.2708 43.7524C13.6585 43.7524 11.5332 45.715 11.5332 48.1274C11.5332 50.5398 13.6585 52.5024 16.2708 52.5024C17.3574 52.5024 18.2413 53.2384 18.2413 54.1431C18.2413 55.0477 17.3573 55.7837 16.2708 55.7837C15.1844 55.7837 14.3005 55.0477 14.3005 54.1431C14.3005 53.3881 13.6809 52.7759 12.9169 52.7759C12.1528 52.7759 11.5332 53.3881 11.5332 54.1431C11.5332 56.5555 13.6585 58.5181 16.2708 58.5181C18.8833 58.5181 21.0086 56.5555 21.0086 54.1431C21.0086 51.7307 18.8833 49.7681 16.2708 49.7681Z" fill="#002A5B"/>
<path d="M40.9303 55.7837H38.3921C38.2856 55.7837 38.1989 55.6981 38.1989 55.5928V45.1196C38.1989 44.3647 37.5793 43.7524 36.8153 43.7524C36.0512 43.7524 35.4316 44.3647 35.4316 45.1196V55.5928C35.4316 57.2058 36.7598 58.5181 38.3921 58.5181H40.9303C41.6943 58.5181 42.3139 57.9058 42.3139 57.1509C42.3139 56.3959 41.6943 55.7837 40.9303 55.7837Z" fill="#002A5B"/>
<path d="M47.1859 46.4868H50.4545C51.2186 46.4868 51.8382 45.8746 51.8382 45.1196C51.8382 44.3647 51.2186 43.7524 50.4545 43.7524H47.1859C45.5534 43.7524 44.2253 45.0648 44.2253 46.6777V55.5927C44.2253 57.2057 45.5535 58.5179 47.1859 58.5179H50.4545C51.2186 58.5179 51.8382 57.9057 51.8382 57.1507C51.8382 56.3958 51.2186 55.7836 50.4545 55.7836H47.1859C47.0793 55.7836 46.9926 55.698 46.9926 55.5927V52.5023H48.9169C49.6809 52.5023 50.3005 51.8901 50.3005 51.1351C50.3005 50.3802 49.6809 49.7679 48.9169 49.7679H46.9926V46.6775C46.9926 46.5724 47.0794 46.4868 47.1859 46.4868Z" fill="#002A5B"/>
<path d="M29.3168 44.6395C29.1142 44.106 28.598 43.7524 28.0213 43.7524C27.4446 43.7524 26.9284 44.106 26.7258 44.6395L22.1597 56.6707C21.8915 57.3778 22.254 58.1659 22.9695 58.431C23.6855 58.6959 24.4826 58.3377 24.7509 57.6309L25.1989 56.4502C25.3298 56.4908 25.469 56.5127 25.6133 56.5127H30.8675L31.2918 57.6309C31.5002 58.1798 32.0272 58.5183 32.5876 58.5183C32.7489 58.5183 32.9132 58.4902 33.0733 58.4308C33.7888 58.1657 34.1513 57.3777 33.883 56.6706L29.3168 44.6395ZM26.2129 53.7784L28.0213 49.0134L29.8297 53.7784H26.2129Z" fill="#002A5B"/>
<path d="M22.2325 61.7969C21.8672 61.7969 21.5116 61.943 21.2543 62.1975C20.9957 62.4518 20.8489 62.8045 20.8489 63.1641C20.8489 63.5236 20.9957 63.8764 21.2543 64.1305C21.5116 64.3848 21.8686 64.5312 22.2325 64.5312C22.5964 64.5312 22.952 64.385 23.2108 64.1305C23.468 63.8764 23.6162 63.5236 23.6162 63.1641C23.6162 62.8045 23.4681 62.4518 23.2108 62.1975C22.952 61.943 22.5964 61.7969 22.2325 61.7969Z" fill="#292929"/>
<path d="M30.349 6.01562C29.9851 6.01562 29.6281 6.16191 29.3707 6.41621C29.1135 6.67051 28.9653 7.02324 28.9653 7.38281C28.9653 7.74238 29.1134 8.09512 29.3707 8.34941C29.6281 8.60371 29.9851 8.75 30.349 8.75C30.7129 8.75 31.0699 8.60371 31.3272 8.34941C31.5844 8.09512 31.7326 7.74238 31.7326 7.38281C31.7326 7.02324 31.5846 6.67051 31.3272 6.41621C31.0699 6.16191 30.7129 6.01562 30.349 6.01562Z" fill="#292929"/>
</svg>
