<svg width="72" height="70" viewBox="0 0 72 70" fill="none" xmlns="http://www.w3.org/2000/svg">
<path d="M44.536 62.2895C44.5177 62.2023 44.4897 62.1165 44.4548 62.0345C44.4198 61.9529 44.3778 61.8724 44.3274 61.7988C44.2755 61.7239 44.2167 61.6542 44.1523 61.5914C44.0878 61.5287 44.0165 61.4715 43.9394 61.4224C43.8638 61.3735 43.7824 61.3311 43.6984 61.297C43.613 61.263 43.5248 61.2372 43.435 61.2195C43.2558 61.184 43.0695 61.184 42.8887 61.2195C42.7991 61.2373 42.7109 61.263 42.6267 61.297C42.5413 61.3311 42.46 61.3735 42.3844 61.4224C42.3074 61.4715 42.2359 61.5288 42.1714 61.5914C42.1069 61.6542 42.0481 61.7238 41.9978 61.7988C41.9474 61.8724 41.904 61.9528 41.869 62.0345C41.834 62.1163 41.8059 62.2021 41.7892 62.2895C41.7709 62.3766 41.7612 62.4667 41.7612 62.5553C41.7612 62.6452 41.7711 62.7338 41.7892 62.8224C41.806 62.9096 41.834 62.9954 41.869 63.0774C41.904 63.1592 41.9474 63.2383 41.9978 63.3119C42.0482 63.3867 42.1071 63.4564 42.1714 63.5191C42.2359 63.5833 42.3073 63.6392 42.3844 63.6895C42.46 63.7384 42.5413 63.7808 42.6267 63.8149C42.7107 63.8489 42.7989 63.8747 42.8887 63.8924C42.9783 63.9102 43.0708 63.9196 43.1618 63.9196C43.2528 63.9196 43.3453 63.91 43.4349 63.8924C43.5245 63.8746 43.6127 63.8489 43.6983 63.8149C43.7823 63.7808 43.8636 63.7384 43.9392 63.6895C44.0162 63.639 44.0877 63.5831 44.1522 63.5191C44.2167 63.4564 44.2754 63.3869 44.3272 63.3119C44.3776 63.2383 44.4196 63.1592 44.4546 63.0774C44.4896 62.9956 44.5177 62.9098 44.5358 62.8224C44.5541 62.7338 44.5624 62.6452 44.5624 62.5553C44.5625 62.4667 44.5541 62.3767 44.536 62.2895Z" fill="#292929"/>
<path d="M9.6394 13.2632H28.1768V26.1579H9.6394V13.2632Z" fill="#2AA300"/>
<path d="M43.1619 42.3691C42.3883 42.3691 41.7612 42.9796 41.7612 43.7324V57.1185C41.7612 57.8713 42.3883 58.4817 43.1619 58.4817C43.9356 58.4817 44.5627 57.8714 44.5627 57.1185V43.7324C44.5627 42.9796 43.9356 42.3691 43.1619 42.3691Z" fill="#2AA300"/>
<path d="M70.3162 0H43.1619C42.3883 0 41.7612 0.610449 41.7612 1.36322V39.1818C41.7612 39.9346 42.3883 40.5451 43.1619 40.5451H70.3162C71.0898 40.5451 71.7169 39.9346 71.7169 39.1818V1.36322C71.7169 0.610449 71.0898 0 70.3162 0ZM45.9669 37.8186H44.5627V2.72645H45.9669V37.8186ZM51.0483 37.8186H48.7683V2.72645H51.0483V37.8186ZM68.9157 37.8186H68.9155H53.8499V2.72645H68.9157V37.8186Z" fill="#292929"/>
<path d="M66.695 9.09949C66.695 5.99024 64.096 3.46094 60.9014 3.46094C57.7068 3.46094 55.1078 5.99037 55.1078 9.09949C55.1078 10.0785 55.3657 11.0002 55.8185 11.8034C55.3514 12.6283 55.1078 13.5504 55.1078 14.5134C55.1078 17.6225 57.7068 20.1518 60.9014 20.1518C64.096 20.1518 66.695 17.6224 66.695 14.5134C66.695 13.5502 66.4515 12.6283 65.9844 11.8034C66.4371 11 66.695 10.0785 66.695 9.09949ZM60.9014 17.4254C59.2515 17.4254 57.9092 16.119 57.9092 14.5134C57.9092 14.3245 57.9275 14.1387 57.963 13.9577C58.825 14.4533 59.8297 14.7381 60.9014 14.7381C61.9731 14.7381 62.9778 14.4534 63.8398 13.9577C63.8754 14.1388 63.8936 14.3246 63.8936 14.5134C63.8936 16.119 62.5513 17.4254 60.9014 17.4254ZM60.9014 12.0115C59.2515 12.0115 57.9092 10.7051 57.9092 9.09949C57.9092 7.49373 59.2515 6.18738 60.9014 6.18738C62.5513 6.18738 63.8936 7.49373 63.8936 9.09949C63.8936 10.7051 62.5513 12.0115 60.9014 12.0115Z" fill="#2AA300"/>
<path d="M64.2202 23.1904H57.5825C56.8089 23.1904 56.1818 23.8007 56.1818 24.5537V35.3874C56.1818 36.1403 56.8089 36.7506 57.5825 36.7506H64.2202C64.9939 36.7506 65.621 36.1403 65.621 35.3874V24.5537C65.621 23.8007 64.9939 23.1904 64.2202 23.1904ZM62.8195 34.0242H58.9832V25.9169H62.8195V34.0242Z" fill="#292929"/>
<path d="M36.9209 20.3865H30.3835V12.1118C30.3835 11.6356 30.1281 11.1938 29.7099 10.9466C29.2915 10.6993 28.7709 10.6825 28.3368 10.9022L26.2634 11.9507L25.3643 11.496C24.4449 11.0311 23.347 11.031 22.4275 11.4961L21.5287 11.9507L20.6296 11.496C19.7102 11.0311 18.6123 11.031 17.6928 11.4961L16.7938 11.9507L15.8948 11.496C14.9753 11.0311 13.8775 11.031 12.9579 11.4961L12.059 11.9507L9.98552 10.9022C9.55116 10.6826 9.03082 10.6993 8.61248 10.9466C8.19427 11.1938 7.93888 11.6356 7.93888 12.1118V20.3865H1.40071C0.627098 20.3865 0 20.997 0 21.7498V68.6366C0 69.3894 0.627098 69.9999 1.40071 69.9999H36.9209C37.6945 69.9999 38.3217 69.3894 38.3217 68.6366V21.7498C38.3217 20.997 37.6945 20.3865 36.9209 20.3865ZM10.7398 14.3564L11.4125 14.6966C11.8175 14.9016 12.2995 14.9014 12.7042 14.6966L14.2489 13.9155C14.3565 13.8612 14.4953 13.8613 14.6025 13.9154L16.1473 14.6966C16.5522 14.9012 17.0343 14.9015 17.4392 14.6966L18.9839 13.9155C19.0915 13.8612 19.2303 13.8613 19.3375 13.9154L20.8823 14.6966C21.2873 14.9014 21.7693 14.9014 22.1742 14.6966L23.7187 13.9155C23.8262 13.8612 23.9651 13.8613 24.0725 13.9154L25.6173 14.6966C26.0224 14.9015 26.5044 14.9015 26.909 14.6966L27.5818 14.3564V25.3314H10.7398V14.3564ZM30.4395 28.0577V32.2752H7.88227V28.0577H30.4395ZM2.80143 23.113H7.93818V25.3312H6.48141C5.7078 25.3312 5.0807 25.9417 5.0807 26.6945V33.6385C5.0807 34.3913 5.7078 35.0018 6.48141 35.0018H31.8401C32.6137 35.0018 33.2408 34.3913 33.2408 33.6385V26.6945C33.2408 25.9417 32.6137 25.3312 31.8401 25.3312H30.3833V23.113H35.5201V37.2202H2.80143V23.113ZM13.4579 67.2736H7.65497V61.9769H13.4579V67.2736ZM13.4579 59.2505H7.65497V53.954H13.4579V59.2505ZM13.4579 51.2277H7.65497V45.9312H13.4579V51.2277ZM22.0622 67.2736H16.2593V61.9769H22.0622V67.2736ZM22.0622 59.2505H16.2593V53.954H22.0622V59.2505ZM22.0622 51.2277H16.2593V45.9311H22.0622V51.2277ZM30.6667 67.2734H24.8636V61.9768H30.6667V67.2734ZM30.6667 59.2505H24.8636V53.954H30.6667V59.2505ZM30.6667 51.2277H24.8636V45.9311H30.6667V51.2277ZM35.5202 67.2734H33.4681V44.568C33.4681 43.8152 32.841 43.2048 32.0674 43.2048H6.25426C5.48064 43.2048 4.85354 43.8152 4.85354 44.568V67.2736H2.80143V39.9466H35.5202V67.2734Z" fill="#292929"/>
<path d="M48.2006 48.3184C47.427 48.3184 46.7999 48.9288 46.7999 49.6816V64.556C46.7999 65.3088 47.427 65.9193 48.2006 65.9193C48.9743 65.9193 49.6014 65.3088 49.6014 64.556V49.6816C49.6014 48.9288 48.9743 48.3184 48.2006 48.3184Z" fill="#2AA300"/>
</svg>
